<?xml version="1.0" encoding="utf-8"?>
<!-- Generator: Adobe Illustrator 16.0.0, SVG Export Plug-In . SVG Version: 6.00 Build 0)  -->
<!DOCTYPE svg PUBLIC "-//W3C//DTD SVG 1.1//EN" "http://www.w3.org/Graphics/SVG/1.1/DTD/svg11.dtd">
<svg version="1.1" id="Слой_1" xmlns="http://www.w3.org/2000/svg" xmlns:xlink="http://www.w3.org/1999/xlink" x="0px" y="0px"
	 width="70px" height="71px" viewBox="0 0 70 71" enable-background="new 0 0 70 71" xml:space="preserve">
<g>
	<path fill="#00AC00" d="M36.146,69.098H7.106c-2.718,0-4.93-2.211-4.93-4.929V7.482c0-2.718,2.211-4.929,4.93-4.929h29.039
		c2.72,0,4.932,2.211,4.932,4.929v56.687C41.077,66.887,38.865,69.098,36.146,69.098z M7.106,5.053c-1.34,0-2.43,1.09-2.43,2.429
		v56.687c0,1.339,1.09,2.429,2.43,2.429h29.039c1.341,0,2.432-1.09,2.432-2.429V7.482c0-1.339-1.091-2.429-2.432-2.429H7.106z"/>
	<path fill="#00AC00" d="M39.827,51.481h-36.4c-0.69,0-1.25-0.56-1.25-1.25s0.56-1.25,1.25-1.25h36.4c0.69,0,1.25,0.56,1.25,1.25
		S40.518,51.481,39.827,51.481z"/>
	<path fill="#00AC00" d="M21.627,63.997c-2.98,0-5.404-2.425-5.404-5.404c0-2.98,2.424-5.405,5.404-5.405
		c0.69,0,1.25,0.56,1.25,1.25s-0.56,1.25-1.25,1.25c-1.602,0-2.904,1.304-2.904,2.905s1.303,2.904,2.904,2.904
		s2.904-1.303,2.904-2.904c0-0.69,0.56-1.25,1.25-1.25s1.25,0.56,1.25,1.25C27.031,61.572,24.607,63.997,21.627,63.997z"/>
	<path fill="#00AC00" d="M25.781,11.146h-8.309c-0.69,0-1.25-0.56-1.25-1.25s0.56-1.25,1.25-1.25h8.309c0.69,0,1.25,0.56,1.25,1.25
		S26.472,11.146,25.781,11.146z"/>
	<path fill="#00AC00" d="M21.381,39.277c-5.65,0-10.247-4.597-10.247-10.246c0-0.257,0.065-0.521,0.18-0.968
		c0.036-0.14,0.073-0.272,0.087-0.355c0.035-0.434,0.289-0.79,0.677-0.987c0.389-0.196,0.848-0.149,1.217,0.077l4.464,2.744
		l10.893-6.266c0.298-0.171,0.65-0.211,0.978-0.115c0.328,0.097,0.602,0.324,0.758,0.628c0.73,1.424,1.24,3.58,1.24,5.242
		C31.628,34.681,27.031,39.277,21.381,39.277z M13.691,29.976c0.468,3.827,3.738,6.802,7.69,6.802c4.272,0,7.747-3.475,7.747-7.746
		c0-0.852-0.188-1.929-0.479-2.87L18.361,32.08c-0.396,0.228-0.888,0.221-1.277-0.019L13.691,29.976z M17.832,27.72
		c-0.215,0-0.43-0.056-0.623-0.166l-4.287-2.466c-0.599-0.345-0.805-1.108-0.46-1.707c0.344-0.599,1.109-0.805,1.707-0.46
		l3.664,2.107l8.351-4.806c0.596-0.344,1.362-0.14,1.707,0.46c0.344,0.598,0.138,1.363-0.46,1.707l-8.975,5.165
		C18.263,27.664,18.047,27.72,17.832,27.72z"/>
	<g>
		<g id="g3316_1_" transform="matrix(0.64050449,0,0,0.64031522,0,25.600003)">
			<path fill="#FCA922" d="M87.489-4.161c-0.128,0-0.256-0.013-0.383-0.038L86.71-4.279c-3.4-0.901-6.712-4.665-6.712-11.104
				c0.163-5.33,2.642-8.509,6.802-8.783c0.043-0.003,0.209-0.006,0.252-0.006c1.04,0,1.968,0.249,2.787,0.47
				c0.151,0.04,0.3,0.08,0.445,0.117c-0.04-0.031-0.079-0.064-0.117-0.098c-0.435-0.391-0.671-0.956-0.645-1.54l0.018-0.4
				c0.23-2.472,1.849-4.48,4.037-5.089l0.37-0.083c0.589-0.127,1.2,0.027,1.662,0.412c0.46,0.387,0.718,0.964,0.697,1.565
				l-0.012,0.351c-0.174,2.077-1.366,3.89-2.991,4.761c0.03-0.01,0.059-0.02,0.09-0.031c0.718-0.246,1.613-0.552,2.909-0.552
				l0.223,0.003c1.801,0.034,3.299,0.615,4.565,1.78l0.442,0.463c0.381,0.405,0.572,0.954,0.523,1.508
				c-0.049,0.554-0.331,1.061-0.778,1.395l-0.245,0.183c-0.901,0.779-1.406,1.948-1.282,3.125c0.111,1.061,0.724,1.948,1.726,2.496
				l0.288,0.127c0.804,0.371,1.258,1.236,1.105,2.108c-0.009,0.056-0.044,0.242-0.059,0.298c-0.364,1.367-1.221,2.879-2.351,4.146
				c-0.796,0.892-2.386,2.389-4.092,2.389c-0.064,0-0.215-0.007-0.279-0.014c-1.052-0.016-1.958-0.249-2.685-0.436
				c-0.453-0.117-0.811-0.209-1.13-0.224l-1,0.059c-0.364,0.042-0.666,0.139-1.051,0.262c-0.473,0.152-1.063,0.342-1.894,0.42
				l-0.752,0.037C87.547-4.162,87.518-4.161,87.489-4.161z M87.051-20.268c-0.739,0.047-3.005,0.196-3.151,4.945
				c0.002,4.94,2.417,6.904,3.694,7.244l0.031,0.006l0.431-0.02c0.311-0.032,0.589-0.12,0.973-0.244
				c0.473-0.152,1.06-0.341,1.903-0.434l1.375-0.072c0.866,0.035,1.477,0.192,2.068,0.344c0.596,0.154,1.16,0.299,1.878,0.322
				c0.195-0.088,0.68-0.393,1.293-1.078c0.381-0.429,0.723-0.907,0.99-1.378c-1.54-1.221-2.47-2.899-2.668-4.793
				c-0.18-1.711,0.271-3.435,1.237-4.893c-0.195-0.036-0.416-0.059-0.668-0.063c-0.828-0.027-1.201,0.141-1.781,0.339
				c-0.529,0.182-1.13,0.387-1.912,0.483l-1.386,0.073c-1.014-0.038-1.819-0.255-2.531-0.446
				C88.184-20.105,87.576-20.268,87.051-20.268z"/>
		</g>
		<g>
			<path fill="#FCA922" d="M65.536,62.497c-0.06,0-0.119-0.004-0.179-0.013l-6.862-0.993c-0.122-0.018-0.236-0.052-0.343-0.101
				c-0.117,0.018-0.236,0.019-0.359,0l-5.116-0.742c-0.614-0.09-1.07-0.616-1.07-1.237v-4.152c0-0.122,0.018-0.239,0.05-0.351
				c-0.032-0.111-0.05-0.229-0.05-0.351v-4.152c0-0.621,0.456-1.147,1.07-1.237l5.116-0.743c0.12-0.019,0.241-0.018,0.359,0
				c0.106-0.049,0.221-0.083,0.343-0.101l6.862-0.993c0.359-0.052,0.724,0.056,0.997,0.292c0.274,0.237,0.432,0.583,0.432,0.945
				v5.989c0,0.122-0.018,0.239-0.05,0.351c0.032,0.111,0.05,0.229,0.05,0.351v5.988c0,0.362-0.157,0.708-0.432,0.945
				C66.126,62.39,65.835,62.497,65.536,62.497z M59.223,59.07l5.063,0.732v-3.995h-5.063V59.07z M54.106,58.329l2.616,0.38v-2.901
				h-2.616V58.329z M59.223,53.308h5.063v-3.295l-5.063,0.732V53.308z M54.106,53.308h2.616v-2.201l-2.616,0.381V53.308z"/>
		</g>
		<g>
			<path fill="#FCA922" d="M66.648,37.513H52.811c-0.69,0-1.25-0.56-1.25-1.25c0-2.533,1.624-4.862,4.237-6.079
				c0.091-0.042,0.184-0.072,0.278-0.092c0.079-0.055,0.167-0.102,0.262-0.139c2.136-0.827,4.647-0.825,6.781,0
				c0.095,0.037,0.183,0.084,0.262,0.139c0.094,0.02,0.188,0.05,0.278,0.092c2.615,1.217,4.239,3.546,4.239,6.079
				C67.898,36.953,67.339,37.513,66.648,37.513z M54.296,35.013h10.867c-0.405-1.056-1.311-1.981-2.559-2.562
				c-0.065-0.031-0.128-0.066-0.186-0.107c-0.068-0.014-0.136-0.033-0.202-0.059c-1.558-0.603-3.417-0.604-4.977,0
				c-0.066,0.025-0.134,0.045-0.202,0.059c-0.058,0.041-0.119,0.076-0.186,0.107C55.605,33.031,54.7,33.957,54.296,35.013z"/>
			<path fill="#FCA922" d="M52.811,43.03c-0.69,0-1.25-0.56-1.25-1.25v-4.469c0-0.69,0.56-1.25,1.25-1.25s1.25,0.56,1.25,1.25v4.469
				C54.061,42.471,53.501,43.03,52.811,43.03z"/>
			<path fill="#FCA922" d="M66.648,43.03c-0.69,0-1.25-0.56-1.25-1.25v-4.469c0-0.69,0.56-1.25,1.25-1.25s1.25,0.56,1.25,1.25v4.469
				C67.898,42.471,67.339,43.03,66.648,43.03z"/>
		</g>
		<path fill="#FCA922" d="M56.224,32.076c-0.403,0-0.8-0.195-1.04-0.556l-1.307-1.956c-0.384-0.574-0.229-1.351,0.345-1.733
			c0.572-0.383,1.351-0.229,1.733,0.345l1.307,1.956c0.384,0.574,0.229,1.351-0.345,1.733
			C56.704,32.008,56.463,32.076,56.224,32.076z"/>
		<path fill="#FCA922" d="M63.239,32.076c-0.238,0-0.479-0.067-0.691-0.209c-0.574-0.383-0.73-1.158-0.349-1.733l1.301-1.956
			c0.383-0.574,1.158-0.73,1.733-0.349c0.574,0.383,0.73,1.158,0.349,1.733l-1.301,1.956C64.04,31.88,63.644,32.076,63.239,32.076z"
			/>
		<circle fill="#FCA922" cx="57.186" cy="33.545" r="0.77"/>
		<circle fill="#FCA922" cx="62.271" cy="33.545" r="0.77"/>
	</g>
</g>
</svg>
