<?xml version="1.0" encoding="utf-8"?>
<!-- Generator: Adobe Illustrator 17.1.0, SVG Export Plug-In . SVG Version: 6.00 Build 0)  -->
<!DOCTYPE svg PUBLIC "-//W3C//DTD SVG 1.1//EN" "http://www.w3.org/Graphics/SVG/1.1/DTD/svg11.dtd">
<svg version="1.1" id="Layer_1" xmlns="http://www.w3.org/2000/svg" xmlns:xlink="http://www.w3.org/1999/xlink" x="0px" y="0px"
	 width="88px" height="65px" viewBox="0 0 88 65" enable-background="new 0 0 88 65" xml:space="preserve">
<g>
	<path fill="#FFAC00" d="M87.8,41.7l0-0.1h0c0-4.6-1.5-9-4.2-12.8l0,0l0,0c-2.8-3.9-6.8-6.8-11.3-8.2l0,0l0,0
		c-2.2-0.7-4.5-1.1-6.8-1.1c-2.3,0-4.6,0.4-6.8,1.1l0,0l0,0c-4.5,1.4-8.5,4.4-11.3,8.2l0,0l0,0c-2.7,3.8-4.2,8.3-4.2,12.9v0l0,0v0
		l0,0l0,0l0,0l0,0v0l0,0.1l0,0l0,0v0l0,0c0,0,0,0,0,0v0h0c0,4.8,1.5,9.3,4.3,13.1l0,0l0,0c2.8,3.8,6.6,6.5,11,8l0,0l0,0l0,0
		c2.2,0.7,4.6,1.1,6.9,1.1c2.4,0,4.7-0.4,6.9-1.1l0,0l0,0c4.4-1.5,8.2-4.2,11-8l0,0l0,0c2.8-3.8,4.3-8.4,4.3-13.2l0,0L87.8,41.7
		L87.8,41.7L87.8,41.7z M74,59.8l1.4-4.2l1.1,0l3.3,0C78.2,57.3,76.2,58.7,74,59.8z M45.7,39.2c0.3-2.4,1.1-4.7,2.2-6.9l1.2,3.8
		l0.1,0.5L45.7,39.2z M81.8,53.1l-6.6,0l-2.9-5l3-9.2l4.5-0.6l5.5,4C85.2,46.2,84,49.9,81.8,53.1z M71.1,60.9
		c-1.8,0.5-3.7,0.8-5.7,0.8c-1.9,0-3.8-0.3-5.7-0.8l-2.1-6.4l2.9-5h9.6l2.9,5L71.1,60.9z M49.1,53.1c-2.2-3.2-3.4-6.9-3.5-10.8
		l5.5-4l4.5,0.6l3,9.2l-2.9,5H49.1z M58.8,23.1l5.4,3.9v3.7l-8,5.8L51.7,36l-2-6.2C52,26.7,55.2,24.4,58.8,23.1z M65.4,24.9
		l-3.6-2.6c1.2-0.2,2.4-0.4,3.6-0.4c1.2,0,2.4,0.1,3.6,0.4L65.4,24.9z M60.8,47L58,38.2l7.5-5.4l7.5,5.4L70.1,47H60.8z M72.1,23.1
		c3.6,1.3,6.8,3.6,9.1,6.7l-2,6.2l-4.5,0.6l-8-5.8V27L72.1,23.1z M82.1,37l-0.5-0.4l1.4-4.2c1.2,2.1,1.9,4.5,2.2,6.9L82.1,37z
		 M55.5,55.5l1.4,4.2c-2.2-1-4.2-2.5-5.8-4.2H55.5z"/>
	<path fill="#00AE00" d="M65.1,15.1L61.9,2.8l0,0c-0.5-1.7-2-2.8-3.6-2.8c-0.3,0-0.7,0-1,0.1l-54.1,15c-1.7,0.5-2.8,2-2.8,3.6
		c0,0.3,0,0.7,0.1,1l9,32.4c0.5,1.7,2,2.8,3.6,2.8c0.3,0,0.7,0,1-0.1l24.9-6.9c0.7-0.2,1-0.9,0.9-1.5s-0.9-1-1.5-0.9l-24.9,6.9
		c-0.1,0-0.2,0-0.3,0c-0.6,0-1.1-0.4-1.2-0.9L7.4,35.2c0,0,0.1,0,0.1,0l39.5-10.7c0.7-0.2,1.1-0.9,0.9-1.5s-0.9-1.1-1.5-0.9
		L6.8,32.8c0,0-0.1,0-0.1,0l-1.4-5.2c0,0,0.1,0,0.1,0l56.4-15.3l0.9,3.4c0.2,0.7,0.8,1.1,1.5,0.9C64.9,16.4,65.3,15.7,65.1,15.1z
		 M4.7,25.2c0,0-0.1,0-0.1,0.1l-1.7-6.2c0-0.1,0-0.2,0-0.3c0-0.6,0.4-1.1,0.9-1.2l54.1-15c0.1,0,0.2,0,0.3,0c0.6,0,1.1,0.4,1.2,0.9
		l1.7,6.5L4.7,25.2z"/>
</g>
</svg>
