<?xml version="1.0" encoding="utf-8"?>
<!-- Generator: Adobe Illustrator 16.0.0, SVG Export Plug-In . SVG Version: 6.00 Build 0)  -->
<!DOCTYPE svg PUBLIC "-//W3C//DTD SVG 1.1//EN" "http://www.w3.org/Graphics/SVG/1.1/DTD/svg11.dtd">
<svg version="1.1" id="Слой_1" xmlns="http://www.w3.org/2000/svg" xmlns:xlink="http://www.w3.org/1999/xlink" x="0px" y="0px"
	 width="70px" height="71px" viewBox="0 0 70 71" enable-background="new 0 0 70 71" xml:space="preserve">
<g>
	<path fill="#FCA922" d="M35.869,61.858c-1.462,0-2.729-1.043-3.012-2.48c-0.324-1.664,0.763-3.281,2.422-3.607
		c1.709-0.334,3.287,0.797,3.606,2.426c0.326,1.662-0.762,3.278-2.424,3.604C36.263,61.84,36.064,61.858,35.869,61.858z
		 M35.871,58.213c-0.036,0-0.074,0.004-0.111,0.011c-0.307,0.061-0.51,0.363-0.449,0.674c0.06,0.303,0.365,0.506,0.671,0.45
		c0.309-0.061,0.512-0.361,0.451-0.67C36.38,58.408,36.144,58.213,35.871,58.213z"/>
	<path fill="#FCA922" d="M29.272,56.703c-1.463,0-2.73-1.043-3.013-2.48c-0.325-1.662,0.763-3.278,2.424-3.604
		c1.704-0.337,3.289,0.798,3.604,2.428c0.157,0.802-0.008,1.621-0.467,2.303s-1.155,1.143-1.96,1.298
		C29.665,56.685,29.468,56.703,29.272,56.703z M29.274,53.061c-0.037,0-0.075,0.004-0.112,0.012c-0.307,0.06-0.51,0.36-0.449,0.669
		c0.06,0.304,0.361,0.507,0.672,0.451c0.201-0.039,0.313-0.167,0.362-0.24c0.05-0.073,0.127-0.227,0.087-0.428
		C29.782,53.254,29.547,53.061,29.274,53.061z"/>
	<path fill="#FCA922" d="M29.702,61.672c-0.24,0-0.482-0.068-0.696-0.213c-0.573-0.385-0.726-1.162-0.34-1.734l5.939-8.831
		c0.386-0.573,1.162-0.727,1.734-0.34c0.573,0.385,0.726,1.162,0.34,1.734l-5.939,8.831C30.499,61.479,30.104,61.672,29.702,61.672z
		"/>
	<path fill="#FCA922" d="M30.304,26.479c-0.281,0-0.562-0.038-0.833-0.112c-0.81-0.22-1.487-0.743-1.906-1.475
		c-0.418-0.73-0.526-1.58-0.306-2.393c0.376-1.371,1.626-2.327,3.041-2.327c0.278,0,0.557,0.037,0.827,0.111
		c1.677,0.455,2.671,2.19,2.217,3.869C32.97,25.522,31.72,26.479,30.304,26.479z M30.3,22.672c-0.292,0-0.551,0.2-0.63,0.485
		c-0.045,0.166-0.022,0.342,0.064,0.492c0.086,0.151,0.226,0.259,0.393,0.304c0.366,0.1,0.711-0.117,0.804-0.456
		c0.094-0.347-0.111-0.707-0.458-0.802C30.415,22.68,30.357,22.672,30.3,22.672z"/>
	<path fill="#FCA922" d="M26.514,18.601c-0.281,0-0.562-0.038-0.835-0.113c-0.808-0.218-1.486-0.741-1.905-1.473
		c-0.418-0.731-0.526-1.581-0.303-2.393c0.37-1.367,1.62-2.325,3.039-2.325c0.278,0,0.557,0.037,0.827,0.11
		c1.68,0.459,2.671,2.195,2.214,3.872C29.181,17.645,27.932,18.601,26.514,18.601z M26.51,14.796c-0.292,0-0.551,0.199-0.628,0.483
		c-0.062,0.228,0.012,0.406,0.062,0.493s0.167,0.242,0.393,0.303c0.383,0.108,0.711-0.116,0.803-0.453
		c0.095-0.349-0.11-0.708-0.458-0.803C26.627,14.805,26.568,14.796,26.51,14.796z"/>
	<path fill="#FCA922" d="M23.77,23.254c-0.434,0-0.855-0.226-1.086-0.629c-0.343-0.6-0.135-1.363,0.464-1.706l9.647-5.519
		c0.6-0.342,1.363-0.135,1.706,0.464c0.343,0.6,0.135,1.363-0.464,1.706l-9.647,5.519C24.193,23.201,23.98,23.254,23.77,23.254z"/>
	<path fill="#FCA922" d="M46.336,22.736c-1.329,0-2.502-0.849-2.918-2.112c-0.527-1.606,0.349-3.346,1.954-3.878
		c1.602-0.527,3.365,0.386,3.881,1.96c0.528,1.607-0.35,3.347-1.959,3.877C46.981,22.685,46.66,22.736,46.336,22.736z
		 M46.334,19.091c-0.06,0-0.12,0.01-0.179,0.029c-0.297,0.099-0.461,0.423-0.362,0.723c0.116,0.35,0.46,0.451,0.722,0.364
		c0.298-0.098,0.461-0.422,0.362-0.722C46.788,19.213,46.54,19.091,46.334,19.091z"/>
	<path fill="#FCA922" d="M39.15,18.441c-1.331,0-2.503-0.851-2.917-2.115c-0.257-0.778-0.194-1.611,0.176-2.343
		c0.37-0.73,1.003-1.273,1.782-1.53c0.311-0.103,0.635-0.155,0.962-0.155c1.328,0,2.5,0.85,2.915,2.114
		c0.257,0.777,0.194,1.61-0.177,2.343c-0.37,0.731-1.003,1.275-1.78,1.532C39.798,18.39,39.476,18.441,39.15,18.441z M39.153,14.798
		c-0.06,0-0.12,0.01-0.179,0.029c-0.199,0.066-0.295,0.207-0.335,0.285c-0.039,0.078-0.096,0.238-0.031,0.435
		c0.115,0.353,0.465,0.449,0.722,0.365c0.194-0.064,0.291-0.207,0.331-0.286c0.039-0.078,0.097-0.239,0.033-0.432
		C39.604,14.92,39.357,14.798,39.153,14.798z"/>
	<path fill="#FCA922" d="M40.417,23.304c-0.189,0-0.382-0.043-0.563-0.134c-0.616-0.312-0.863-1.063-0.553-1.68l4.797-9.501
		c0.313-0.616,1.063-0.863,1.68-0.552c0.616,0.311,0.863,1.063,0.553,1.679l-4.797,9.501C41.313,23.053,40.874,23.304,40.417,23.304
		z"/>
	<path fill="#FCA922" d="M34.496,36.466c-1.333,0-2.506-0.85-2.919-2.115c-0.256-0.777-0.193-1.61,0.177-2.343
		c0.369-0.731,1.003-1.275,1.782-1.531c0.31-0.103,0.635-0.155,0.962-0.155c1.326,0,2.498,0.848,2.916,2.11
		c0.527,1.61-0.352,3.35-1.959,3.88C35.143,36.414,34.82,36.466,34.496,36.466z M34.498,32.821c-0.061,0-0.121,0.01-0.18,0.029
		c-0.198,0.065-0.294,0.206-0.333,0.285c-0.04,0.078-0.097,0.239-0.032,0.437c0.114,0.351,0.46,0.447,0.721,0.365
		c0.299-0.099,0.464-0.424,0.365-0.725C34.95,32.943,34.703,32.821,34.498,32.821z"/>
	<path fill="#FCA922" d="M38.79,29.28c-1.329,0-2.502-0.849-2.917-2.111c-0.257-0.779-0.194-1.613,0.177-2.347
		c0.37-0.732,1.004-1.275,1.783-1.53c0.31-0.102,0.634-0.154,0.961-0.154c1.328,0,2.499,0.849,2.913,2.112
		c0.257,0.776,0.195,1.609-0.175,2.342c-0.369,0.733-1.003,1.278-1.784,1.534C39.438,29.229,39.116,29.28,38.79,29.28z
		 M38.794,25.638c-0.061,0-0.122,0.01-0.182,0.03c-0.197,0.063-0.293,0.204-0.332,0.283c-0.04,0.078-0.098,0.24-0.032,0.436
		c0.115,0.352,0.462,0.452,0.719,0.364c0.198-0.064,0.294-0.206,0.334-0.285c0.039-0.078,0.097-0.239,0.032-0.434
		C39.243,25.759,38.998,25.638,38.794,25.638z"/>
	<path fill="#FCA922" d="M41.605,33.523c-0.189,0-0.382-0.043-0.563-0.134l-9.5-4.798c-0.616-0.312-0.863-1.063-0.553-1.68
		c0.312-0.616,1.063-0.863,1.68-0.553l9.5,4.798c0.616,0.312,0.863,1.063,0.553,1.68C42.502,33.272,42.063,33.523,41.605,33.523z"/>
	<path fill="#00AC00" d="M50.903,66.75H21.577c-1.341,0-2.787-0.94-2.787-2.459V51.434c0-0.926,0.58-1.959,1.774-3.157l9.844-10.4
		l-9.832-10.197c-1.181-1.185-1.786-2.246-1.786-3.14V11.68c0-1.391,1.286-3.089,2.787-3.089h29.326
		c0.488,0,0.936,0.185,1.259,0.521c0.614,0.636,0.582,1.524,0.557,2.237c-0.005,0.115-0.009,0.227-0.009,0.33v12.86
		c0,1.047-0.565,2.315-1.406,3.156l-9.498,10.394l9.62,10.213c0.604,0.607,1.284,1.994,1.284,3.133v12.857
		c0,0.109,0.005,0.213,0.01,0.308c0.02,0.438,0.05,1.102-0.454,1.629C51.935,66.574,51.477,66.75,50.903,66.75z M50.903,64.251V65.5
		l0.014-1.25C50.913,64.25,50.908,64.25,50.903,64.251z M21.29,64.176c0.063,0.035,0.172,0.074,0.287,0.074H50.21V51.435
		c0-0.376-0.352-1.163-0.58-1.394L39.19,38.959c-0.448-0.477-0.454-1.218-0.013-1.701l10.319-11.29
		c0.442-0.443,0.713-1.084,0.713-1.429v-12.86c0-0.132,0.005-0.274,0.01-0.42c0.002-0.049,0.004-0.107,0.006-0.167H21.679
		c-0.154,0.109-0.372,0.439-0.389,0.602v12.847c0.036,0.139,0.396,0.712,1.071,1.391l10.675,11.071
		c0.464,0.48,0.468,1.241,0.009,1.727L22.358,50.019c-0.83,0.833-1.052,1.317-1.069,1.437L21.29,64.176z"/>
	<path fill="#00AC00" d="M55.5,66.75H16c-0.69,0-1.25-0.56-1.25-1.25s0.56-1.25,1.25-1.25h39.5c0.69,0,1.25,0.56,1.25,1.25
		S56.19,66.75,55.5,66.75z"/>
	<path fill="#00AC00" d="M55.5,11.091H16c-0.69,0-1.25-0.56-1.25-1.25s0.56-1.25,1.25-1.25h39.5c0.69,0,1.25,0.56,1.25,1.25
		S56.19,11.091,55.5,11.091z"/>
</g>
</svg>
