<?xml version="1.0" encoding="utf-8"?>
<!-- Generator: Adobe Illustrator 21.1.0, SVG Export Plug-In . SVG Version: 6.00 Build 0)  -->
<svg version="1.1" id="Layer_1" xmlns="http://www.w3.org/2000/svg" xmlns:xlink="http://www.w3.org/1999/xlink" x="0px" y="0px"
	 width="71px" height="65px" viewBox="0 0 71 65" style="enable-background:new 0 0 71 65;" xml:space="preserve">
<style type="text/css">
	.st0{fill:#FFAC00;}
	.st1{fill:#00AC00;}
</style>
<g>
	<g>
		<path class="st0" d="M60.1,31.1c1.9,0,3.4-1.5,3.4-3.4s-1.5-3.4-3.4-3.4s-3.4,1.5-3.4,3.4C56.8,29.6,58.3,31.1,60.1,31.1z
			 M60.1,26.9c0.5,0,0.9,0.4,0.9,0.9s-0.4,0.9-0.9,0.9s-0.9-0.4-0.9-0.9C59.3,27.3,59.7,26.9,60.1,26.9z"/>
		<path class="st0" d="M67.4,31.6c-1.9,0-3.4,1.5-3.4,3.4s1.5,3.4,3.4,3.4s3.4-1.5,3.4-3.4C70.7,33.1,69.2,31.6,67.4,31.6z
			 M67.4,35.8c-0.5,0-0.9-0.4-0.9-0.9s0.4-0.9,0.9-0.9s0.9,0.4,0.9,0.9C68.2,35.4,67.8,35.8,67.4,35.8z"/>
		<path class="st0" d="M69.7,25.4c-0.5-0.5-1.3-0.5-1.8,0L57.8,35.5c-0.5,0.5-0.5,1.3,0,1.8s1.3,0.5,1.8,0l10.1-10.1
			C70.2,26.7,70.2,25.9,69.7,25.4z"/>
	</g>
	<g>
		<polygon class="st1" points="10.6,23.9 11.4,25.9 14.2,24.4 14.2,40.1 17,40.1 17,21 14.9,21 10.4,23.4 		"/>
		<path class="st1" d="M20.1,37.9L20,38.1v2.1h12.3v-2.6h-7.9c2.6-2.5,4.4-4.5,5.6-6.2c1.3-1.9,1.8-3.5,1.8-5.2c0-1.6-0.5-3-1.5-4
			s-2.4-1.5-4.1-1.5c-2.5,0-4.6,1.2-6.1,3.1L19.9,24l1.2,2.5l0.5-0.6c0.7-0.9,1.4-1.5,2.1-2s1.5-0.7,2.4-0.7c1,0,1.7,0.3,2.2,0.8
			s0.8,1.2,0.8,2.2c0,1.2-0.5,2.6-1.9,4.4C25.7,32.6,23.4,34.9,20.1,37.9z"/>
		<path class="st1" d="M35.6,44.2c2.2-1.4,3.1-3.3,3.1-4.8c0-0.7-0.2-1.3-0.5-1.8c-0.4-0.4-0.9-0.7-1.5-0.7c-0.5,0-0.9,0.2-1.3,0.5
			c-0.3,0.3-0.5,0.8-0.5,1.2c0,0.5,0.2,0.9,0.5,1.2c0.2,0.2,0.5,0.3,0.8,0.4c-0.3,0.7-0.9,1.5-2.1,2.2l-0.6,0.4l1.8,1.5L35.6,44.2z"
			/>
		<path class="st1" d="M46.4,37.9c-1.7,0-3.1-0.6-4.3-1.3l-0.5-0.3l-0.9,2.6L41,39c1.4,0.8,3.3,1.4,5.3,1.4c1.9,0,3.7-0.5,4.9-1.6
			s1.9-2.7,1.9-4.6c0-2-0.7-3.7-2-4.7c-1.3-1.1-3-1.6-4.9-1.6c-0.6,0-1.3,0.1-2.2,0.2l0.2-4.5h8V21H41.7l-0.3,10.2l0.7-0.2
			c1.6-0.5,2.9-0.6,3.8-0.6c1.5,0,2.6,0.3,3.4,0.9c0.7,0.6,1.1,1.5,1.2,2.8c0,1.3-0.4,2.2-1,2.8C48.7,37.6,47.7,37.9,46.4,37.9z"/>
	</g>
</g>
<path class="st1" d="M62.6,19.7L62.6,19.7c-5-12-17.2-20.2-30.9-19.8c-1.2,0-2.5,0.2-3.8,0.4C11.9,2.7-0.3,16.7,0.3,33.4
	c0.1,1.3,0.2,2.6,0.4,3.8C3,53.3,17.2,65.4,33.8,64.8c1.3-0.1,2.6-0.2,3.8-0.4c12.2-1.8,22-10.3,25.9-21.4c0.2-0.6-0.1-1.4-0.7-1.6
	c-0.6-0.2-1.4,0.1-1.6,0.7C57.5,52.5,48.5,60.3,37.2,62c-1.2,0.2-2.3,0.2-3.5,0.3C18.3,62.9,5.3,51.7,3.1,36.8
	c-0.2-1.2-0.2-2.3-0.3-3.5C2.3,17.9,13.4,5,28.3,2.7c1.2-0.2,2.3-0.2,3.5-0.3C44.5,2,55.6,9.6,60.4,20.7c0.3,0.7,1.1,1,1.6,0.7
	C62.6,21,62.9,20.3,62.6,19.7z"/>
</svg>
