<?xml version="1.0" encoding="utf-8"?>
<!-- Generator: Adobe Illustrator 21.0.2, SVG Export Plug-In . SVG Version: 6.00 Build 0)  -->
<svg version="1.1" id="Layer_1" xmlns="http://www.w3.org/2000/svg" xmlns:xlink="http://www.w3.org/1999/xlink" x="0px" y="0px"
	 width="91px" height="65px" viewBox="0 0 91 65" style="enable-background:new 0 0 91 65;" xml:space="preserve">
<style type="text/css">
	.st0{fill:#FFAC00;}
	.st1{fill:#38AF00;}
</style>
<g>
	<path class="st0" d="M86.8,22.7l-15.1-0.8c-0.7,0-1.3,0.5-1.3,1.2c0,0.7,0.5,1.3,1.2,1.3l15.1,0.8c0.8,0,1.4,0.7,1.4,1.5l0,0.1
		l-0.3,5.5l-13.4-0.7c-0.7,0-1.3,0.5-1.3,1.2s0.5,1.3,1.2,1.3l13.4,0.7l-0.3,5.6l-11.2-0.6c-0.7,0-1.3,0.5-1.3,1.2s0.5,1.3,1.2,1.3
		l11.2,0.6l-0.9,17.6c0,0.8-0.7,1.4-1.5,1.4l-0.1,0L28,58.9c-0.8,0-1.4-0.7-1.4-1.5l0-0.1l0,0l0-0.9c0-0.7-0.5-1.3-1.2-1.3
		c-0.7,0-1.3,0.5-1.3,1.2l0,0.9l0,0l0,0.2c0,2.1,1.7,3.9,3.8,4l56.8,2.9l0,0l0.2,0c2.1,0,3.9-1.7,4-3.8l1.7-33.7l0-0.2
		C90.6,24.6,88.9,22.8,86.8,22.7z"/>
	<g>
		<path class="st1" d="M48.6,29.8c0.6,0.3,1.4,0,1.6-0.7c0.3-0.6,0-1.4-0.7-1.6c-0.1,0-0.2-0.1-0.2-0.2c-0.1-0.1-0.1-0.3-0.1-0.4
			c0-0.1,0-0.1,0-0.2c0.2,0.7,0.8,1.1,1.5,0.9c0.7-0.1,1.1-0.8,1-1.5c-0.1-0.5-0.3-1-0.6-1.4c-0.2-0.2-0.4-0.4-0.7-0.6
			c-0.3-0.2-0.6-0.3-1-0.3c-0.2,0-0.3,0-0.4,0c-0.7,0.2-1.3,0.6-1.7,1.2c-0.3,0.5-0.5,1.2-0.5,1.8c0,0.6,0.1,1.1,0.4,1.7
			C47.5,29,48,29.5,48.6,29.8z"/>
		<polygon class="st1" points="48.9,23.9 48.9,23.9 48.9,23.9 		"/>
		<path class="st1" d="M39.7,31.3c0.2-0.6-0.1-1.3-0.7-1.6l0,0c0,0,0,0-0.1-0.1c0.2,0.2,0.5,0.4,0.9,0.4c0.7,0,1.3-0.6,1.3-1.2l0,0
			c0-0.5-0.1-1.1-0.5-1.6c-0.2-0.3-0.5-0.5-0.8-0.6c-0.3-0.1-0.6-0.2-0.9-0.2c-0.2,0-0.4,0-0.6,0.1l0,0c-0.4,0.1-0.7,0.2-1,0.5
			c-0.4,0.3-0.6,0.7-0.8,1.1c-0.2,0.4-0.2,0.8-0.2,1.2c0,0.5,0.1,1.1,0.3,1.6c0.1,0.3,0.3,0.5,0.5,0.7c0.2,0.2,0.5,0.4,0.8,0.5
			C38.7,32.3,39.4,31.9,39.7,31.3z M39,29.7L39,29.7L39,29.7L39,29.7z"/>
		<path class="st1" d="M77.4,40.2c0-0.4,0-0.7-0.1-1.1L67.5,3.6c-0.5-1.8-2.1-2.9-3.9-2.9c-0.4,0-0.7,0-1.1,0.1l0,0L2.9,17.3l0,0
			C1.2,17.8,0,19.4,0,21.1c0,0.4,0,0.7,0.1,1.1l0,0L10,57.7l0,0c0.5,1.8,2.1,2.9,3.9,2.9c0.4,0,0.7,0,1.1-0.1l0,0L74.5,44l0,0
			C76.3,43.5,77.4,41.9,77.4,40.2z M29.7,25.9L29.7,25.9L29.7,25.9l3,3.8c0,0,0,0.1,0.1,0.1c-0.2,1.3-0.3,2.6-0.3,3.7
			c0,1.7,0.2,2.9,0.2,3l0.1,0.7c-0.3-0.4-0.6-0.9-1-1.4c-2-2.8-3.1-4.7-3.7-6c-0.6-1.3-0.8-1.9-1-2.5c0-0.1-0.1-0.3-0.1-0.6
			c0-0.5,0.1-1.1,0.3-1.4c0.1-0.2,0.2-0.3,0.3-0.4c0.1-0.1,0.2-0.1,0.3-0.2l0,0l0.1,0c0.1,0,0.3,0,0.5,0.1c0.3,0.1,0.6,0.4,0.8,0.6
			C29.4,25.7,29.5,25.8,29.7,25.9L29.7,25.9L29.7,25.9z M35.1,36.2L35.1,36.2L35.1,36.2c0-0.1-0.2-1.2-0.2-2.7
			c0-1.2,0.1-2.7,0.5-4.3c0.4-1.6,1-3.1,2.1-4.5c1.2-1.7,2.8-2.8,4.4-3.5c1.7-0.8,3.5-1.2,5.4-1.3c0.3,0,0.5,0,0.8,0
			c1.7,0,3.6,0.5,5.4,1.4c1.8,0.9,3.4,2.3,4.5,4.1c0.2,0.3,0.4,0.7,0.6,1.1c-0.2,0.7-0.3,1.4-0.5,2.1c-0.6,3-1.1,5.3-1.1,7.2
			c0,1,0.1,1.8,0.5,2.7c0.4,0.8,1,1.5,1.8,2c0.4,0.3,1,0.5,1.5,0.4c0.5,0,0.9-0.1,1.3-0.3l0.3,4.3c0,0,0,0.1,0,0.1l-24.9,6.9
			L35.1,36.2z M65.6,19.3c0,0.1,0.1,0.3,0.1,0.6c0.1,0.4,0.1,0.9,0.1,1.4c0,0.8-0.1,1.6-0.1,2.2c0,0.3-0.1,0.6-0.1,0.7l0,0.2l0,0.1
			c0,0-0.1,0.3-0.1,0.9c-0.1,0.8-0.4,2.1-0.6,3.3c-0.2,1.3-0.5,2.5-0.7,3.3c-0.3,0.9-0.9,2.7-1.6,4.1c-0.4,0.7-0.8,1.3-1.2,1.7
			c-0.2,0.2-0.3,0.3-0.5,0.4c-0.1,0.1-0.2,0.1-0.2,0.1c0,0,0,0-0.2-0.1c-0.5-0.3-0.7-0.6-0.9-0.9c-0.2-0.4-0.3-0.9-0.3-1.6
			c0-1.4,0.4-3.6,1.1-6.6c0.6-3,1.3-5.1,1.9-6.5c0.7-1.4,1.3-2.2,1.8-2.7C64.8,19.3,65.2,19.3,65.6,19.3
			C65.5,19.3,65.5,19.3,65.6,19.3z M73.8,41.6l-9.1,2.5l-0.3-4.5l0-0.1c0,0-0.1-0.7-0.2-1.4c0.5-0.8,1-1.7,1.3-2.6
			c0.5-1.1,0.8-2.1,1-2.9c0.4-1.2,0.7-3.2,1-4.8c0.3-1.6,0.5-3,0.5-3l0,0c0,0,0.3-1.8,0.3-3.6c0-0.8,0-1.6-0.2-2.4
			c-0.1-0.4-0.2-0.7-0.5-1.1c-0.1-0.2-0.3-0.4-0.5-0.5C67,17.1,66.8,17,66.6,17l0,0c-0.1,0-0.5-0.2-1.1-0.2c-0.8,0-1.8,0.3-2.9,1.1
			l0,0c-0.9,0.8-1.8,1.9-2.5,3.6c-0.2,0.5-0.4,1-0.6,1.6c-1.3-1.8-3-3.2-4.9-4.1c-2.1-1.1-4.4-1.7-6.5-1.7c-0.3,0-0.7,0-1,0
			c-2,0.2-4.2,0.6-6.2,1.5c-2,0.9-3.9,2.3-5.4,4.3c-0.9,1.2-1.5,2.4-1.9,3.6l-1.9-2.4l0,0c-0.1-0.1-0.4-0.5-0.9-1
			c-0.3-0.3-0.7-0.5-1.1-0.7c-0.4-0.2-1-0.4-1.6-0.4c-0.2,0-0.5,0-0.7,0.1h0c-0.5,0.1-1,0.4-1.4,0.7c-0.6,0.5-0.9,1.2-1.1,1.8
			c-0.2,0.6-0.3,1.3-0.3,1.9c0,0.4,0,0.8,0.1,1.2c0.2,0.7,0.4,1.6,1.1,3.1c0.7,1.4,1.9,3.4,3.9,6.3c1.8,2.6,2.8,4,3.3,4.7
			c0.2,0.3,0.4,0.5,0.5,0.6l1.4,9.7l-20.7,5.7c-0.1,0-0.3,0.1-0.4,0.1c-0.7,0-1.3-0.4-1.4-1.1L2.6,21.5c0-0.1-0.1-0.3-0.1-0.4
			c0-0.7,0.4-1.3,1.1-1.4h0L63.2,3.2l0,0c0.1,0,0.3-0.1,0.4-0.1c0.7,0,1.3,0.4,1.4,1.1l9.8,35.5c0,0.1,0.1,0.3,0.1,0.4
			C74.9,40.8,74.5,41.4,73.8,41.6z"/>
		<path class="st1" d="M52.5,35.1c0-0.1,0-0.1,0-0.1c-0.1-0.4-0.3-0.8-0.5-1.1c-0.7-1.3-1.7-2.2-2.8-2.7c-1.1-0.5-2.2-0.6-3.1-0.6
			c-1.3,0-2.3,0.3-2.6,0.3c-0.3,0.1-1.4,0.3-2.5,1.1c-0.6,0.5-1.3,1.1-1.8,2c-0.5,0.9-0.8,2-0.8,3.4c0,0.4,0,0.8,0.1,1.3
			c0.2,1.6,0.5,2.8,1,3.8c0.7,1.5,1.6,2.4,2.6,2.9c1,0.5,1.9,0.4,2.5,0.4c0.2,0,0.4,0,0.7,0c0.7,0,1.5,0,2.3-0.1
			c0.6-0.1,1.3-0.3,1.9-0.5c1-0.4,1.9-1.1,2.5-2.2c0.6-1.1,0.9-2.5,0.9-4.2c0-0.5,0-1-0.1-1.6C52.8,36.3,52.7,35.7,52.5,35.1z
			 M48.7,40c-0.5-0.2-0.9-0.5-1.2-0.8c-0.1-0.1-0.2-0.3-0.3-0.4c-0.1-0.1-0.1-0.2-0.1-0.3v0l0,0l0-0.2l0,0c0.1,0,0.3-0.1,0.6-0.2
			c0.5-0.1,1.3-0.2,2.1-0.5c0.2-0.1,0.3-0.1,0.5-0.2c0,0.4,0,0.7,0,1.1c0,0.8-0.1,1.4-0.2,1.9C49.8,40.5,49.2,40.3,48.7,40z
			 M47.5,43.1c-0.7,0.1-1.5,0.1-2.2,0.1c-0.2,0-0.4,0-0.7,0c-0.4,0-0.7,0-1-0.1c-0.2-0.1-0.5-0.1-0.7-0.3c-0.3-0.2-0.7-0.5-1-1.2
			c-0.4-0.7-0.7-1.8-0.9-3.4c0-0.3-0.1-0.7-0.1-1c0-1,0.2-1.6,0.5-2.2c0.4-0.8,1.1-1.3,1.7-1.5c0.3-0.1,0.6-0.2,0.7-0.3
			c0.1,0,0.2,0,0.2-0.1l0,0l0,0l0,0l0.1,0l0,0c0,0,0.9-0.2,1.9-0.2c0.9,0,1.9,0.2,2.7,0.7c0.4,0.3,0.7,0.7,1,1.2c0,0,0,0.1,0,0.1
			c-0.2,0.1-0.3,0.2-0.6,0.3c-0.3,0.1-0.7,0.2-1.1,0.3c-0.6,0.1-1.3,0.2-2.1,0.5c-0.4,0.2-0.8,0.5-1.1,0.9c-0.3,0.4-0.4,1-0.4,1.5
			l0,0v0c0,0.5,0.1,1,0.3,1.4c0.4,0.7,0.9,1.3,1.5,1.6c0.7,0.5,1.5,0.8,2.1,1C48.3,42.9,47.9,43,47.5,43.1z"/>
		<path class="st1" d="M23.7,48.3l-8.9,2.4c-0.7,0.2-1.1,0.9-0.9,1.5c0.2,0.7,0.9,1.1,1.5,0.9l8.9-2.4c0.7-0.2,1.1-0.9,0.9-1.5
			C25.1,48.6,24.4,48.2,23.7,48.3z"/>
		<path class="st1" d="M12.7,47.3c0.2,0.7,0.9,1.1,1.5,0.9l14.8-4c0.7-0.2,1.1-0.9,0.9-1.5c-0.2-0.7-0.9-1.1-1.5-0.9l-14.8,4
			C12.9,45.9,12.5,46.6,12.7,47.3z"/>
	</g>
</g>
</svg>
