<?xml version="1.0" encoding="utf-8"?>
<!-- Generator: Adobe Illustrator 21.0.2, SVG Export Plug-In . SVG Version: 6.00 Build 0)  -->
<svg version="1.1" id="Layer_1" xmlns="http://www.w3.org/2000/svg" xmlns:xlink="http://www.w3.org/1999/xlink" x="0px" y="0px"
	 width="89.6px" height="75px" viewBox="0 0 89.6 75" style="enable-background:new 0 0 89.6 75;" xml:space="preserve">
<style type="text/css">
	.st0{fill:#00AC00;}
	.st1{fill:#FFAC00;}
</style>
<g>
	<g>
		<path class="st0" d="M20.6,37.7c0.7,0,1.2-0.6,1.2-1.2V32h4.4c0.7,0,1.2-0.6,1.2-1.2s-0.6-1.2-1.2-1.2h-4.4V25
			c0-0.7-0.6-1.2-1.2-1.2s-1.2,0.6-1.2,1.2v4.4h-4.4c-0.7,0-1.2,0.6-1.2,1.2s0.6,1.2,1.2,1.2h4.4v4.4C19.3,37.1,19.9,37.7,20.6,37.7
			z"/>
		<path class="st0" d="M25.5,51c-0.5-0.5-1.3-0.5-1.8,0l-3.1,3.1L17.5,51c-0.5-0.5-1.3-0.5-1.8,0c-0.5,0.5-0.5,1.3,0,1.8l3.1,3.1
			L15.7,59c-0.5,0.5-0.5,1.3,0,1.8c0.5,0.5,1.3,0.5,1.8,0l3.1-3.1l3.1,3.1c0.5,0.5,1.3,0.5,1.8,0s0.5-1.3,0-1.8l-3.1-3.1l3.1-3.1
			C26,52.3,26,51.5,25.5,51z"/>
		<path class="st0" d="M56.1,1H10.2c-1.8,0-3.3,1.5-3.3,3.3v61.9c0,1.8,1.5,3.3,3.3,3.3h33.6c-1.3-0.7-2.6-1.6-3.7-2.5h-5.7v-6.4
			c-1-1.6-1.9-3.4-2.5-5.3v11.6H10.2c-0.2,0-0.4-0.1-0.6-0.2c-0.2-0.2-0.2-0.4-0.2-0.6v-22h21.3c0.1-0.8,0.2-1.7,0.4-2.5H9.4V18.9
			h22.5V39c0.6-1.9,1.5-3.6,2.5-5.3V18.9h22.5v2.9c0.8,0,1.7,0.1,2.5,0.2V4.4C59.4,2.5,57.9,1.1,56.1,1z M9.4,16.4v-12
			c0-0.2,0.1-0.4,0.2-0.6c0.2-0.2,0.4-0.2,0.6-0.2h45.9c0.2,0,0.4,0.1,0.6,0.2c0.2,0.2,0.2,0.4,0.2,0.6v12H9.4z"/>
	</g>
	<g>
		<path class="st1" d="M56,20.5c-14.8,0-26.7,12-26.7,26.7C29.3,62,41.2,74,56,74c14.8,0,26.7-12,26.7-26.7
			C82.7,32.5,70.7,20.5,56,20.5z M73.1,64.4c-4.4,4.4-10.4,7.1-17.1,7.1c-6.7,0-12.7-2.7-17.1-7.1c-4.4-4.4-7.1-10.4-7.1-17.1
			c0-6.7,2.7-12.7,7.1-17.1C43.2,25.7,49.3,23,56,23c6.7,0,12.7,2.7,17.1,7.1c4.4,4.4,7.1,10.4,7.1,17.1
			C80.2,53.9,77.5,60,73.1,64.4z"/>
		<path class="st1" d="M62.4,47.3c2.1,0,3.7-1.7,3.7-3.7c0-2.1-1.7-3.7-3.7-3.7c-2.1,0-3.7,1.7-3.7,3.7
			C58.6,45.7,60.3,47.3,62.4,47.3z M62.4,42.4c0.7,0,1.2,0.5,1.2,1.2c0,0.7-0.5,1.2-1.2,1.2c-0.7,0-1.2-0.5-1.2-1.2
			C61.1,42.9,61.7,42.4,62.4,42.4z"/>
		<path class="st1" d="M70.9,48.4c-2.1,0-3.7,1.7-3.7,3.7c0,2.1,1.7,3.7,3.7,3.7c2.1,0,3.7-1.7,3.7-3.7
			C74.6,50.1,72.9,48.4,70.9,48.4z M70.9,53.3c-0.7,0-1.2-0.5-1.2-1.2c0-0.7,0.5-1.2,1.2-1.2c0.7,0,1.2,0.5,1.2,1.2
			C72.1,52.8,71.6,53.3,70.9,53.3z"/>
		<path class="st1" d="M73.5,41c-0.5-0.5-1.3-0.5-1.8,0L59.8,52.9c-0.5,0.5-0.5,1.3,0,1.8c0.5,0.5,1.3,0.5,1.8,0l11.9-11.9
			C73.9,42.3,73.9,41.5,73.5,41z"/>
		<polygon class="st1" points="37.1,42.9 38.5,45 40.3,43.6 40.3,55.5 42.9,55.5 42.9,40 41,40 		"/>
		<path class="st1" d="M52.6,47.4L52.6,47.4c1.6-0.7,2.4-2,2.4-3.7c0-2.4-1.8-3.9-4.4-3.9c-2.2,0-3.7,0.8-4.6,2.4l1.4,1.8
			c0.7-1.1,1.7-1.7,2.9-1.7c1.3,0,2,0.7,2,1.9c0,1.3-1.1,2.1-2.4,2.1h-1v2.5H50c1.8,0,2.9,0.8,2.9,2.2c0,1.2-0.9,2.1-2.5,2.1
			c-1.3,0-2.4-0.6-3.3-1.9l-1.4,1.9c0.8,1.6,2.6,2.6,4.9,2.6c1.5,0,2.7-0.4,3.6-1.2c0.9-0.8,1.4-2,1.4-3.3
			C55.6,49.2,54.5,47.8,52.6,47.4z"/>
	</g>
</g>
</svg>
