<?xml version="1.0" encoding="utf-8"?>
<!-- Generator: Adobe Illustrator 21.1.0, SVG Export Plug-In . SVG Version: 6.00 Build 0)  -->
<svg version="1.1" id="Layer_2" xmlns="http://www.w3.org/2000/svg" xmlns:xlink="http://www.w3.org/1999/xlink" x="0px" y="0px"
	 width="82px" height="55.8px" viewBox="0 0 82 55.8" style="enable-background:new 0 0 82 55.8;" xml:space="preserve">
<style type="text/css">
	.st0{fill:#38AF00;}
	.st1{fill:#FFAC00;}
</style>
<g>
	<g>
		<path class="st0" d="M65.5,7.2c0-2.1-1.7-3.8-3.8-3.8H8.6c-2.2,0-3.9,1.7-3.9,3.8v30.2c0,2.1,1.7,3.8,3.8,3.8h33.2
			c0.6,0,1.1-0.5,1.1-1.1c0-0.6-0.5-1.1-1.1-1.1l0,0H8.5c-0.9,0-1.6-0.7-1.6-1.6V7.2c0-0.9,0.7-1.6,1.6-1.6h53.1
			c0.9,0,1.6,0.7,1.6,1.6v9.7c0,0.6,0.5,1.1,1.1,1.1c0.5,0,1.1-0.5,1.1-1.1L65.5,7.2z"/>
		<path class="st0" d="M12.3,14.7c0,0-0.1,0.2-0.2,0.4c-0.1,0.3-0.2,0.5-0.2,0.9c0,4.2,3.4,7.6,7.6,7.6c4.2,0,7.6-3.4,7.6-7.6
			c0-1.3-0.4-2.7-0.9-3.9c-0.2-0.3-0.4-0.4-0.7-0.5c-0.3-0.1-0.6-0.1-0.9,0.1l-7.8,4.5l-3.1-1.9c-0.3-0.2-0.6-0.2-0.9-0.1
			C12.6,14.2,12.4,14.5,12.3,14.7z M17.5,18.4l7.3-4.2c0.2,0.6,0.3,1.3,0.3,1.8c0,1.5-0.6,2.8-1.6,3.8c-1,1-2.3,1.6-3.8,1.6
			c-1.5,0-2.8-0.6-3.8-1.6c-0.7-0.7-1.2-1.7-1.5-2.7l2.1,1.3C16.8,18.6,17.1,18.6,17.5,18.4z"/>
		<path class="st0" d="M16.4,14.3c0.4,0.3,0.8,0.3,1.1,0l6.5-3.8c0.5-0.3,0.7-1,0.4-1.5c-0.3-0.5-1-0.7-1.5-0.4l0,0L17,12.1
			l-2.2-1.4c-0.4-0.4-1.1-0.2-1.5,0.4c-0.4,0.5-0.2,1.1,0.4,1.5L16.4,14.3z"/>
		<path class="st0" d="M40.1,28.7c0-0.6-0.5-1.1-1.1-1.1h-26c-0.6,0-1.1,0.5-1.1,1.1c0,0.5,0.5,1.1,1.1,1.1h26
			C39.7,29.8,40.1,29.3,40.1,28.7z"/>
		<path class="st0" d="M13.1,32.3c-0.6,0-1.1,0.5-1.1,1.1c0,0.6,0.5,1.1,1.1,1.1h13.1c0.6,0,1.1-0.5,1.1-1.1c0-0.6-0.5-1.1-1.1-1.1
			H13.1z"/>
	</g>
	<g>
		<path class="st1" d="M59,15.8c-10.1,0-18.3,8.2-18.3,18.3S48.9,52.4,59,52.4s18.3-8.2,18.3-18.3S69,15.8,59,15.8z M70.4,45.5
			c-2.9,2.9-7,4.7-11.4,4.7s-8.5-1.8-11.4-4.7c-2.9-2.9-4.8-6.9-4.8-11.4c0-4.4,1.8-8.5,4.7-11.4c2.9-2.9,7-4.7,11.4-4.7
			s8.5,1.8,11.4,4.7c2.9,2.9,4.7,7,4.7,11.4C75,38.6,73.3,42.6,70.4,45.5z"/>
		<path class="st1" d="M66.2,40.9L66.2,40.9L66.2,40.9z"/>
		<path class="st1" d="M66,30.8c-0.5-0.3-1-0.4-1.4-0.4h-0.1H64c0.2-0.4,0.4-0.8,0.5-1.3c0.1-0.4,0.2-0.7,0.2-1.1
			c0-0.9-0.4-1.6-0.7-2.1c-0.4-0.4-0.6-0.7-0.7-0.8l-0.1-0.1L63.1,25l-0.2-0.1c-0.1,0-0.4-0.2-0.9-0.2c-0.4,0-0.7,0.1-1.1,0.3
			c-0.4,0.2-0.6,0.5-0.8,0.9c-0.2,0.4-0.3,0.7-0.4,1.1c0,0.4-0.3,0.9-0.5,1.2c-0.3,0.4-0.6,0.7-0.8,0.9l0,0l-0.2,0.2l0,0
			c-0.4,0.4-0.6,0.7-0.8,1.1c-0.2,0.4-0.4,0.8-0.5,1.1c0,0.1-0.2,0.3-0.4,0.5c0,0,0,0-0.1,0.1c-0.1-0.1-0.1-0.2-0.2-0.3
			c-0.2-0.2-0.5-0.4-0.8-0.4H52c-0.6,0-1.1,0.3-1.3,0.6c-0.3,0.4-0.5,0.8-0.5,1.3v6.7c0,0.5,0.3,1.1,0.6,1.3
			c0.4,0.3,0.8,0.4,1.2,0.4h3.6l0,0l0,0c0.4,0,1.8,0,1.8,0l0,0h0.1c0.1,0,0.4,0,0.6,0c0.8,0,2.3,0,3.7,0c0.7,0,1.3,0,1.8,0
			c0.3,0,0.4,0,0.5,0c1,0,1.7-0.4,2.1-1c0.4-0.5,0.5-1.1,0.5-1.7c0.2-0.3,0.3-0.5,0.4-0.8c0.1-0.4,0.1-0.7,0.1-0.9l0,0v-0.1
			c0-0.2,0-0.3,0-0.4c0-0.1,0.1-0.2,0.1-0.3c0.2-0.4,0.3-0.7,0.3-1.1v-0.2c0-0.3-0.1-0.6-0.1-0.8c0.2-0.4,0.3-0.7,0.3-1.1l0,0v-0.1
			c0-0.5-0.1-1-0.4-1.4C67,31.4,66.6,31,66,30.8z M54.4,39.7h-2.1v-6h2.1V39.7z M65.6,33.5c0,0.3-0.1,0.4-0.2,0.4
			c-0.3,0.4-0.4,0.9-0.1,1.2c0,0.1,0.1,0.2,0.1,0.4v0.1c0,0.1,0,0.3-0.1,0.4l-0.1,0l0,0c-0.4,0.4-0.4,0.8-0.3,1.2
			c0.1,0.1,0,0.1,0.1,0.2l0,0c0,0.1,0,0.3-0.1,0.4l-0.1,0.3l0,0l0,0c-0.3,0.3-0.4,0.6-0.4,1v0.1c0,0.1,0,0.3-0.1,0.4
			c-0.1,0-0.2,0.1-0.4,0.1c-0.1,0-0.3,0-0.5,0c-0.4,0-1.1,0-1.8,0c-1.4,0-2.8,0-3.7,0c-0.2,0-0.4,0-0.5,0h-0.2l0,0l0,0l0,0l0,0
			c0,0-0.4,0-0.7,0v-5.3c0.1,0,0.2,0,0.3,0c0.3,0,0.5-0.1,0.7-0.3c0.3-0.2,0.4-0.4,0.7-0.7c0.3-0.3,0.4-0.5,0.6-0.9s0.4-0.6,0.4-1
			c0.1-0.2,0.2-0.3,0.2-0.4l0.1-0.1l0,0l0.2-0.1l0,0c0.4-0.3,0.8-0.7,1.2-1.3c0.4-0.6,0.9-1.4,1-2.3C62,27.1,62,27,62,27
			c0.1,0.1,0.2,0.3,0.3,0.4c0.1,0.2,0.2,0.4,0.2,0.6c0,0.1,0,0.3-0.1,0.4c-0.2,0.6-0.4,1.1-0.6,1.4c-0.1,0.2-0.2,0.3-0.2,0.4
			l-0.1,0.1l0,0l-0.1,0.1c0,0-0.1,0.2-0.2,0.3c-0.1,0.1-0.1,0.2-0.2,0.4c0,0.1-0.1,0.3-0.1,0.5c0,0.2,0,0.4,0.1,0.5
			c0.2,0.4,0.5,0.6,0.9,0.6l0,0H62h2.2c0.2,0,0.5,0.1,0.7,0.3c0.1,0.1,0.2,0.2,0.2,0.3C65.5,33.2,65.5,33.3,65.6,33.5L65.6,33.5z"/>
	</g>
</g>
</svg>
