<?xml version="1.0" encoding="utf-8"?>
<!-- Generator: Adobe Illustrator 16.0.0, SVG Export Plug-In . SVG Version: 6.00 Build 0)  -->
<!DOCTYPE svg PUBLIC "-//W3C//DTD SVG 1.1//EN" "http://www.w3.org/Graphics/SVG/1.1/DTD/svg11.dtd">
<svg version="1.1" id="Слой_1" xmlns="http://www.w3.org/2000/svg" xmlns:xlink="http://www.w3.org/1999/xlink" x="0px" y="0px"
	 width="70px" height="71px" viewBox="0 0 70 71" enable-background="new 0 0 70 71" xml:space="preserve">
<g>
	<path fill="#FCA922" d="M53.777,26.59c-0.69,0-1.25-0.56-1.25-1.25s0.56-1.25,1.25-1.25c5.794,0,10.508-4.713,10.508-10.507
		c0-5.795-4.714-10.51-10.508-10.51S43.27,7.788,43.27,13.583c0,0.69-0.56,1.25-1.25,1.25s-1.25-0.56-1.25-1.25
		c0-7.174,5.835-13.01,13.008-13.01s13.008,5.836,13.008,13.01C66.785,20.755,60.95,26.59,53.777,26.59z"/>
	<path fill="#FCA922" d="M51.493,22.131c-0.69,0-1.25-0.56-1.25-1.25v-5.858h-1.312c-0.69,0-1.25-0.56-1.25-1.25
		s0.56-1.25,1.25-1.25h1.312V7.665c0-0.69,0.56-1.25,1.25-1.25h3.055c2.374,0,4.306,1.931,4.306,4.305
		c0,2.373-1.932,4.304-4.306,4.304h-1.805v5.858C52.743,21.572,52.184,22.131,51.493,22.131z M52.743,12.523h1.805
		c0.996,0,1.806-0.809,1.806-1.804c0-0.996-0.81-1.805-1.806-1.805h-1.805V12.523z"/>
	<path fill="#FCA922" d="M55.549,19.113h-6.618c-0.69,0-1.25-0.56-1.25-1.25s0.56-1.25,1.25-1.25h6.618c0.69,0,1.25,0.56,1.25,1.25
		S56.239,19.113,55.549,19.113z"/>
	<g>
		<path fill="#00AC00" d="M66.501,56.104c-0.009-0.036-0.02-0.07-0.031-0.105l-6.168-18.2c-0.089-0.358-0.2-0.71-0.325-1.056
			c1.69,0.63,3.371,1.303,5.035,2.07c0.63,0.29,1.369,0.015,1.658-0.611c0.289-0.627,0.016-1.369-0.611-1.658
			c-9.122-4.208-18.593-6.389-28.856-6.693l2.412-2.412c0.724,0.422,1.553,0.682,2.449,0.682c2.701,0,4.899-2.197,4.899-4.898
			c0-2.702-2.198-4.899-4.899-4.899s-4.899,2.198-4.899,4.899c0,0.896,0.26,1.727,0.682,2.45l-4.144,4.145
			c-10.554,0.139-20.496,2.4-30.346,6.944c-0.627,0.289-0.901,1.031-0.612,1.658c0.211,0.457,0.664,0.727,1.136,0.727
			c0.175,0,0.353-0.037,0.522-0.115c1.662-0.767,3.328-1.441,4.997-2.075c-0.093,0.277-0.18,0.559-0.251,0.844l-6.167,18.2
			c-0.012,0.035-0.021,0.069-0.03,0.105c-0.816,3.347-0.064,6.622,2.064,9.332c2.128,2.709,5.326,4.064,8.771,4.064h41.878
			c3.445,0,6.643-1.354,8.771-4.064C66.564,62.726,67.316,59.45,66.501,56.104z M42.063,20.821c1.323,0,2.399,1.076,2.399,2.399
			c0,1.322-1.076,2.398-2.399,2.398s-2.399-1.076-2.399-2.398C39.664,21.897,40.74,20.821,42.063,20.821z M62.47,64.141
			c-1.651,2.103-4.132,3.359-6.805,3.359H13.787c-2.674,0-5.154-1.257-6.805-3.359c-1.641-2.088-2.227-4.787-1.614-7.368
			l6.166-18.21c0.012-0.035,0.022-0.076,0.03-0.111c0.231-0.947,0.628-1.847,1.17-2.675c7.135-2.326,14.395-3.486,21.992-3.486
			c7.707,0,14.928,1.097,21.876,3.289c0.006,0.01,0.007,0.02,0.013,0.028c0.599,0.874,1.026,1.829,1.271,2.837
			c0.009,0.035,0.02,0.07,0.031,0.105l6.167,18.223C64.697,59.354,64.11,62.053,62.47,64.141z"/>
		<path fill="#00AC00" d="M29.907,28.119c2.701,0,4.899-2.197,4.899-4.898c0-2.702-2.198-4.899-4.899-4.899
			s-4.899,2.198-4.899,4.899C25.008,25.922,27.206,28.119,29.907,28.119z M29.907,20.821c1.323,0,2.399,1.076,2.399,2.399
			c0,1.322-1.076,2.398-2.399,2.398s-2.399-1.076-2.399-2.398C27.508,21.897,28.584,20.821,29.907,20.821z"/>
	</g>
</g>
</svg>
